<?xml version="1.0" standalone="no"?>
<!DOCTYPE svg PUBLIC "-//W3C//DTD SVG 20010904//EN"
 "http://www.w3.org/TR/2001/REC-SVG-20010904/DTD/svg10.dtd">
<svg version="1.0" xmlns="http://www.w3.org/2000/svg"
 width="440.000000pt" height="280.000000pt" viewBox="0 0 440.000000 280.000000"
 preserveAspectRatio="xMidYMid meet">

<g transform="translate(0.000000,280.000000) scale(0.100000,-0.100000)"
fill="#000000" stroke="none">
<path d="M1255 2533 c-8 -20 -14 -38 -11 -40 2 -2 9 10 16 27 7 16 15 30 19
30 3 0 55 -18 115 -40 60 -22 111 -39 113 -37 2 3 -27 16 -64 30 -37 14 -92
34 -120 46 l-53 21 -15 -37z"/>
<path d="M2492 2480 c-123 -26 -230 -109 -286 -221 -46 -91 -59 -162 -53 -279
10 -210 106 -351 285 -421 77 -31 268 -33 352 -5 70 24 146 61 188 93 l32 24
0 185 0 184 -200 0 -200 0 0 -80 0 -80 110 0 110 0 0 -59 0 -60 -52 -24 c-133
-62 -239 -62 -331 1 -106 72 -150 294 -86 441 50 117 191 178 321 139 42 -12
128 -89 128 -113 0 -8 4 -16 9 -19 8 -5 170 20 178 27 2 3 -6 31 -18 63 -30
79 -104 153 -184 183 -68 26 -229 37 -303 21z"/>
<path d="M200 2000 l0 -462 283 5 c321 4 338 7 408 77 101 101 105 253 9 347
-18 17 -45 37 -61 43 l-29 12 32 22 c53 36 91 98 96 160 6 69 -11 118 -57 169
-69 77 -89 81 -403 85 l-278 4 0 -462z m517 274 c54 -41 53 -124 -4 -161 -22
-15 -53 -19 -180 -21 l-153 -4 0 107 0 107 154 -4 c138 -3 158 -5 183 -24z
m-28 -355 c86 -18 123 -87 86 -158 -25 -49 -75 -61 -245 -61 l-150 0 0 115 0
115 130 0 c71 0 152 -5 179 -11z"/>
<path d="M1520 2408 c-20 -46 -37 -106 -27 -97 10 8 58 139 51 139 -3 0 -14
-19 -24 -42z"/>
<path d="M1797 2318 c-9 -23 -15 -43 -13 -46 2 -2 10 13 17 32 7 20 16 36 19
36 4 0 33 -9 65 -20 32 -11 63 -20 69 -20 12 1 -121 60 -133 60 -5 0 -15 -19
-24 -42z"/>
<path d="M1120 2197 c-43 -109 -45 -115 -45 -222 0 -103 2 -114 32 -178 91
-192 310 -298 511 -247 165 41 280 161 352 365 10 28 21 58 25 68 6 15 4 18
-15 15 -20 -2 -31 -21 -67 -115 -49 -124 -100 -193 -179 -239 -43 -25 -44 -25
-100 -9 -40 12 -53 19 -46 28 5 7 24 50 41 97 18 47 40 96 48 110 16 25 16 25
-13 -2 -36 -33 -93 -58 -134 -58 -36 0 -96 23 -124 48 -24 22 -56 90 -56 122
0 21 3 19 19 -15 55 -122 198 -148 291 -55 44 44 85 139 76 176 -10 37 -27 18
-60 -66 -36 -91 -72 -115 -169 -111 -39 1 -93 57 -102 104 -6 28 -1 55 19 108
14 38 26 74 26 78 0 5 -21 9 -47 9 -61 0 -153 35 -194 73 -17 16 -34 29 -38
29 -3 0 -26 -51 -51 -113z"/>
<path d="M2002 2055 c-14 -31 -15 -45 -3 -45 10 0 26 58 19 66 -3 2 -10 -7
-16 -21z"/>
<path d="M1342 1227 c-119 -44 -178 -181 -138 -320 32 -112 103 -162 231 -162
69 0 88 4 140 30 l60 30 3 103 3 102 -106 0 -105 0 0 -40 0 -40 60 0 60 0 0
-36 c0 -32 -4 -37 -46 -56 -54 -23 -118 -21 -160 7 -57 37 -82 164 -46 234 28
56 64 76 134 76 57 0 62 -2 92 -37 30 -35 34 -36 70 -28 49 11 50 13 32 48
-44 85 -177 127 -284 89z"/>
<path d="M190 990 l0 -240 45 0 45 0 2 183 3 182 27 -110 c15 -60 34 -143 43
-182 l17 -73 53 0 53 0 17 73 c9 39 28 122 43 182 l27 110 3 -182 2 -183 45 0
45 0 0 240 0 240 -78 0 -78 0 -38 -160 c-21 -88 -40 -160 -41 -160 -1 0 -20
72 -41 160 l-38 160 -78 0 -78 0 0 -240z"/>
<path d="M825 1053 c-37 -98 -78 -206 -91 -240 l-24 -63 48 0 49 0 18 55 19
55 91 0 92 0 18 -55 19 -55 48 0 48 0 -36 98 c-19 53 -58 161 -86 240 l-51
142 -47 0 -47 0 -68 -177z m140 -26 c14 -37 25 -72 25 -77 0 -6 -25 -10 -55
-10 -30 0 -55 4 -55 9 0 15 52 152 56 148 2 -2 15 -33 29 -70z"/>
<path d="M1730 990 l0 -240 45 0 44 0 3 155 3 155 94 -155 94 -155 48 0 49 0
0 240 0 240 -45 0 -44 0 -3 -157 -3 -158 -95 158 -95 157 -47 0 -48 0 0 -240z"/>
<path d="M2210 990 l0 -240 185 0 185 0 0 40 0 40 -140 0 -140 0 0 65 0 65
125 0 125 0 0 40 0 40 -125 0 -125 0 0 55 0 55 135 0 135 0 0 40 0 40 -180 0
-180 0 0 -240z"/>
<path d="M2630 1190 l0 -40 70 0 70 0 0 -200 0 -200 45 0 45 0 0 200 0 200 70
0 70 0 0 40 0 40 -185 0 -185 0 0 -40z"/>
</g>
</svg>
