<?xml version="1.0" standalone="no"?>
<!DOCTYPE svg PUBLIC "-//W3C//DTD SVG 20010904//EN"
 "http://www.w3.org/TR/2001/REC-SVG-20010904/DTD/svg10.dtd">
<svg version="1.0" xmlns="http://www.w3.org/2000/svg"
 width="2620.000000pt" height="938.000000pt" viewBox="0 0 2620.000000 938.000000"
 preserveAspectRatio="xMidYMid meet">

<g transform="translate(0.000000,938.000000) scale(0.100000,-0.100000)"
fill="#000000" stroke="none">
<path d="M22834 8299 c-3 -6 -1 -16 5 -22 8 -8 11 -5 11 11 0 24 -5 28 -16 11z"/>
<path d="M24295 8280 c-3 -5 -1 -10 4 -10 6 0 11 5 11 10 0 6 -2 10 -4 10 -3
0 -8 -4 -11 -10z"/>
<path d="M22837 8235 c-4 -8 -2 -17 3 -20 6 -4 10 3 10 14 0 25 -6 27 -13 6z"/>
<path d="M23631 8224 c0 -11 3 -14 6 -6 3 7 2 16 -1 19 -3 4 -6 -2 -5 -13z"/>
<path d="M24510 8194 c0 -8 5 -12 10 -9 6 3 10 10 10 16 0 5 -4 9 -10 9 -5 0
-10 -7 -10 -16z"/>
<path d="M12650 5125 l0 -1255 129 0 130 0 3 568 c4 511 6 573 22 632 27 94
58 150 122 220 94 101 198 142 359 143 150 1 238 -30 325 -114 46 -44 93 -136
111 -214 8 -34 13 -244 16 -642 l4 -593 130 0 129 0 0 625 c0 586 -1 629 -20
709 -55 235 -195 386 -415 447 -68 18 -97 21 -219 17 -256 -8 -367 -66 -523
-274 -19 -24 -24 -27 -32 -14 -7 10 -11 186 -11 508 l0 492 -130 0 -130 0 0
-1255z"/>
<path d="M17090 5125 l0 -1255 130 0 130 0 0 1255 0 1255 -130 0 -130 0 0
-1255z"/>
<path d="M11222 6295 c-389 -74 -659 -314 -791 -701 -106 -312 -106 -736 0
-1048 185 -543 667 -803 1270 -686 342 67 587 281 693 605 14 44 26 81 26 82
0 2 -64 2 -141 1 l-141 -3 -17 -40 c-106 -264 -355 -415 -683 -415 -214 0
-367 56 -510 188 -98 91 -205 275 -239 412 -38 151 -42 190 -42 380 0 190 4
229 42 380 32 128 126 297 220 393 141 144 300 208 521 208 123 1 225 -17 307
-53 176 -77 330 -241 383 -407 l17 -56 142 -3 c77 -1 141 1 141 5 0 5 -9 42
-19 83 -81 324 -354 582 -702 661 -121 27 -369 35 -477 14z"/>
<path d="M5375 5804 c-49 -8 -100 -19 -111 -25 -14 -7 -69 -10 -153 -8 -72 2
-131 1 -131 -2 0 -9 40 -27 85 -38 61 -16 168 -13 289 9 l109 19 89 -23 c103
-28 120 -39 112 -72 -5 -18 -2 -24 10 -24 10 0 16 -9 16 -24 0 -21 6 -25 33
-28 l32 -3 -34 -19 -35 -18 48 -19 c27 -10 56 -24 65 -32 9 -8 30 -22 48 -31
17 -9 34 -25 38 -35 3 -11 20 -29 38 -41 28 -19 29 -21 7 -15 -14 4 -43 10
-65 14 -22 5 -75 20 -119 34 -43 15 -113 29 -155 32 l-76 6 75 -20 c41 -11 94
-25 118 -31 24 -6 60 -23 80 -39 21 -16 77 -41 127 -56 50 -15 107 -36 128
-46 39 -20 77 -70 77 -102 0 -23 24 -17 28 7 2 10 -13 45 -35 79 -37 61 -38
64 -35 147 l3 85 -51 78 c-53 82 -62 88 -190 135 -35 13 -68 18 -92 15 -32 -4
-42 0 -81 36 -49 46 -111 72 -166 70 -20 -1 -76 -7 -126 -15z"/>
<path d="M14895 5648 c-249 -69 -436 -253 -447 -438 l-3 -45 122 -3 123 -3 24
54 c42 97 127 170 237 204 83 26 255 23 342 -6 115 -39 190 -112 222 -217 18
-61 21 -254 3 -272 -7 -7 -35 -12 -62 -12 -67 0 -341 -18 -481 -31 -294 -28
-459 -102 -562 -254 -77 -113 -84 -342 -16 -480 48 -95 151 -189 258 -235 99
-42 276 -63 400 -45 171 23 341 126 430 260 59 89 65 78 65 -116 l0 -139 126
0 125 0 -3 678 -4 677 -23 65 c-68 190 -223 311 -474 369 -79 18 -320 12 -402
-11z m623 -950 c18 -18 15 -203 -4 -269 -35 -120 -122 -222 -238 -281 -86 -43
-154 -58 -270 -58 -173 0 -293 56 -352 163 -23 42 -27 63 -27 121 1 84 19 131
70 182 76 76 181 107 423 124 137 10 299 22 371 29 8 0 20 -4 27 -11z"/>
<path d="M16664 5651 c-115 -39 -206 -118 -250 -217 -13 -30 -30 -54 -39 -54
-12 0 -15 24 -17 138 l-3 137 -122 3 -123 3 0 -896 0 -895 135 0 135 0 0 593
c0 645 1 656 57 760 37 67 120 141 191 168 48 19 76 22 180 22 l122 0 0 128 0
129 -107 -1 c-75 0 -124 -6 -159 -18z"/>
<path d="M18205 5655 c-194 -43 -341 -137 -450 -290 -56 -79 -117 -210 -134
-290 -7 -33 -18 -76 -24 -95 -5 -19 -10 -118 -10 -220 0 -102 5 -201 10 -220
6 -19 17 -62 24 -95 42 -192 194 -395 369 -492 194 -107 511 -125 730 -40 194
74 344 223 399 396 20 63 23 61 -117 61 l-129 0 -24 -47 c-72 -143 -244 -233
-440 -233 -159 1 -286 49 -384 146 -67 66 -118 154 -141 241 -15 56 -31 211
-23 215 2 2 294 5 649 8 l645 5 -4 135 c-11 446 -214 728 -586 815 -75 18
-279 18 -360 0z m350 -243 c179 -67 304 -239 316 -434 2 -27 -2 -53 -7 -58 -7
-7 -181 -9 -505 -8 l-494 3 3 55 c10 165 127 342 276 415 39 20 91 40 116 45
70 14 237 4 295 -18z"/>
<path d="M19803 5654 c-171 -37 -319 -129 -392 -242 -50 -79 -65 -135 -64
-252 0 -92 3 -112 27 -164 35 -78 85 -138 154 -184 107 -72 150 -87 499 -177
221 -58 298 -95 343 -165 90 -140 17 -301 -165 -365 -43 -15 -162 -35 -210
-34 -78 0 -185 23 -247 51 -68 32 -137 99 -162 159 -10 24 -21 51 -26 59 -6
12 -33 16 -130 18 -68 1 -127 -1 -131 -5 -13 -13 17 -117 52 -184 115 -215
388 -332 714 -307 408 32 648 266 606 591 -23 172 -130 278 -356 351 -123 40
-128 41 -310 87 -245 61 -320 98 -372 187 -51 86 -29 208 49 278 77 68 158 94
303 94 203 0 323 -65 380 -206 l24 -59 123 0 123 0 -3 40 c-2 22 -13 65 -24
95 -66 170 -218 284 -451 339 -63 15 -277 12 -354 -5z"/>
<path d="M5545 5542 c-32 -4 -45 -16 -45 -44 0 -24 19 -22 54 5 35 28 31 43
-9 39z"/>
<path d="M4333 5478 c-18 -11 -33 -23 -33 -27 0 -5 11 -20 24 -36 28 -32 56
-30 95 6 l24 22 -22 8 c-12 5 -21 17 -21 29 0 25 -24 25 -67 -2z"/>
<path d="M4020 5449 c0 -52 39 -133 56 -116 9 9 -17 92 -38 119 l-18 23 0 -26z"/>
<path d="M4170 5445 c-16 -19 -8 -27 25 -27 25 0 55 17 55 33 0 15 -67 10 -80
-6z"/>
<path d="M4181 5351 c-12 -16 -21 -37 -21 -48 1 -15 4 -14 25 10 14 16 34 27
50 27 27 0 32 9 13 28 -20 20 -46 14 -67 -17z"/>
<path d="M3774 5302 c-6 -4 -17 -24 -23 -45 -7 -21 -23 -57 -36 -80 -13 -23
-25 -53 -27 -67 -6 -51 18 -29 64 57 l46 88 51 -3 c30 -1 51 2 51 8 0 19 -107
55 -126 42z"/>
<path d="M4016 5165 c17 -25 38 -32 49 -16 6 11 -33 41 -52 41 -10 0 -9 -6 3
-25z"/>
<path d="M6430 5171 c0 -5 5 -13 10 -16 6 -3 10 -2 10 4 0 5 -4 13 -10 16 -5
3 -10 2 -10 -4z"/>
<path d="M3823 5109 c-16 -16 -17 -45 -3 -54 13 -8 23 17 18 45 -2 17 -5 19
-15 9z"/>
<path d="M6240 5095 c-11 -13 -14 -38 -12 -94 3 -93 -24 -157 -75 -180 -20 -9
-41 -31 -58 -62 -14 -27 -30 -51 -35 -54 -15 -10 -39 -67 -48 -116 -5 -26 -21
-62 -35 -81 -31 -40 -33 -65 -9 -94 27 -33 69 -58 74 -43 7 21 41 1 35 -20 -3
-12 4 -23 22 -33 76 -44 137 -26 173 51 42 94 52 67 67 -199 7 -113 15 -215
18 -228 12 -52 22 1 29 153 5 131 3 180 -11 268 -20 124 -17 159 20 252 28 72
35 167 16 216 -8 19 -10 10 -11 -46 0 -79 -31 -215 -56 -248 -15 -21 -16 -18
-10 53 3 41 13 98 21 125 12 35 14 70 10 120 -8 102 -26 195 -37 195 -5 0 -14
14 -20 30 -8 23 -15 29 -28 25 -12 -4 -19 0 -22 11 -3 16 -4 16 -18 -1z"/>
<path d="M3688 5053 c7 -3 16 -2 19 1 4 3 -2 6 -13 5 -11 0 -14 -3 -6 -6z"/>
<path d="M5835 5041 c-16 -10 -39 -28 -50 -40 l-19 -22 29 7 c17 3 32 7 35 6
55 -1 63 -11 32 -47 -39 -46 -78 -67 -242 -127 -30 -11 -59 -24 -64 -29 -19
-18 -38 -10 -31 12 7 21 5 22 -31 16 -22 -4 -52 -7 -68 -7 -23 0 -27 -3 -18
-12 18 -18 14 -38 -8 -38 -21 0 -27 -15 -10 -25 6 -4 4 -17 -5 -35 -21 -40
-19 -57 3 -37 26 24 32 21 32 -12 0 -33 28 -51 36 -23 18 54 30 75 65 110 34
33 51 41 111 52 41 8 78 21 88 32 18 20 100 39 131 31 26 -7 75 14 92 41 8 11
20 38 26 59 12 34 11 41 -5 59 -21 23 -66 48 -86 48 -7 0 -26 -8 -43 -19z"/>
<path d="M3812 4978 c-34 -34 3 -70 44 -43 26 17 32 45 10 45 -8 0 -20 2 -28
5 -7 3 -19 0 -26 -7z"/>
<path d="M3658 4889 c-31 -29 -36 -49 -13 -49 17 0 48 44 43 62 -2 9 -12 4
-30 -13z"/>
<path d="M6381 4904 c0 -11 3 -14 6 -6 3 7 2 16 -1 19 -3 4 -6 -2 -5 -13z"/>
<path d="M3671 4784 c-11 -13 -11 -18 -1 -24 9 -6 8 -10 -6 -18 -30 -17 -9
-25 30 -12 41 13 41 13 20 45 -19 29 -24 30 -43 9z"/>
<path d="M6192 3977 c-13 -56 -16 -94 -6 -85 5 5 33 113 34 131 0 4 -3 7 -8 7
-4 0 -13 -24 -20 -53z"/>
<path d="M4464 3960 c-19 -8 -42 -30 -31 -30 16 0 67 24 67 31 0 11 -8 11 -36
-1z"/>
<path d="M4710 3805 c0 -2 5 -15 11 -28 9 -19 7 -31 -5 -55 -12 -23 -13 -37
-6 -57 6 -15 10 -42 10 -61 0 -24 4 -34 16 -34 12 0 14 7 9 30 -6 26 -4 30 15
30 17 0 21 4 17 20 -3 11 -1 22 3 25 16 10 1 87 -21 111 -20 21 -49 33 -49 19z"/>
<path d="M4247 3723 c-3 -5 -8 -22 -11 -40 -5 -22 -16 -35 -37 -43 -23 -10
-27 -15 -18 -26 6 -8 18 -14 25 -14 20 0 17 -18 -3 -23 -10 -2 0 -7 22 -11 68
-13 70 -14 50 -36 -14 -16 -16 -23 -7 -32 7 -7 12 -35 12 -63 1 -47 2 -49 16
-30 8 11 19 27 24 35 7 12 11 12 24 1 13 -11 16 -11 16 2 0 8 8 34 19 57 28
63 17 89 -52 123 -55 27 -57 29 -57 67 0 36 -12 52 -23 33z"/>
<path d="M5680 3533 c0 -30 47 -116 60 -108 12 7 40 -70 40 -111 0 -31 -3 -35
-20 -29 -26 8 -25 1 6 -75 25 -62 25 -66 14 -159 -7 -53 -14 -125 -16 -161
l-4 -65 15 33 c19 40 34 151 35 244 0 44 7 86 21 119 11 29 23 80 26 113 5 57
3 64 -28 111 -30 44 -116 115 -140 115 -5 0 -9 -12 -9 -27z"/>
<path d="M4483 3483 c-54 -4 -58 -8 -47 -51 7 -23 26 -25 68 -7 13 6 23 3 32
-9 23 -32 49 -16 52 32 4 47 16 43 -105 35z"/>
<path d="M4790 3427 c0 -2 11 -37 25 -77 31 -90 32 -158 3 -236 -25 -71 -35
-211 -18 -268 8 -27 14 -35 20 -26 4 7 13 9 19 6 8 -5 11 19 11 82 0 85 8 166
31 334 13 89 2 136 -38 168 -22 17 -53 27 -53 17z"/>
<path d="M15780 3292 c-72 -20 -127 -71 -155 -146 -13 -33 -16 -67 -13 -138 4
-104 20 -148 72 -199 45 -45 91 -61 173 -60 128 0 195 57 213 182 5 35 10 67
10 72 0 4 -47 7 -105 7 -87 0 -105 -3 -105 -15 0 -12 14 -15 68 -15 40 0 73
-5 80 -12 30 -30 -2 -106 -62 -150 -38 -27 -46 -29 -112 -26 -85 4 -120 27
-160 107 -55 109 -29 255 58 324 31 25 46 29 100 31 73 1 121 -21 153 -72 21
-33 51 -50 66 -35 15 15 -40 91 -84 117 -44 26 -149 41 -197 28z"/>
<path d="M16500 3292 c-72 -20 -127 -71 -155 -146 -13 -33 -16 -67 -13 -138 4
-104 20 -148 72 -199 45 -45 91 -61 173 -60 128 0 195 57 213 182 5 35 10 67
10 72 0 4 -47 7 -105 7 -87 0 -105 -3 -105 -15 0 -12 14 -15 68 -15 40 0 73
-5 80 -12 30 -30 -2 -106 -62 -150 -38 -27 -46 -29 -112 -26 -85 4 -120 27
-160 107 -55 109 -29 255 58 324 31 25 46 29 100 31 73 1 121 -21 153 -72 21
-33 51 -50 66 -35 15 15 -40 91 -84 117 -44 26 -149 41 -197 28z"/>
<path d="M18280 3292 c-72 -20 -127 -71 -155 -146 -13 -33 -16 -67 -13 -138 4
-104 20 -148 72 -199 45 -45 91 -61 173 -60 128 0 195 57 213 182 5 35 10 67
10 72 0 4 -47 7 -105 7 -87 0 -105 -3 -105 -15 0 -12 14 -15 68 -15 40 0 73
-5 80 -12 30 -30 -2 -106 -62 -150 -38 -27 -46 -29 -111 -26 -87 4 -124 29
-162 106 -54 111 -28 257 59 325 31 25 46 29 100 31 73 1 121 -21 153 -72 21
-33 51 -50 66 -35 15 15 -40 91 -84 117 -44 26 -149 41 -197 28z"/>
<path d="M20605 3291 c-118 -31 -175 -117 -175 -266 0 -187 79 -275 248 -275
69 0 83 3 124 29 48 31 76 65 99 121 19 49 17 204 -5 252 -20 47 -71 105 -108
124 -34 18 -140 26 -183 15z m177 -70 c59 -42 83 -100 83 -201 0 -102 -23
-154 -88 -201 -39 -29 -47 -30 -112 -27 -58 3 -76 8 -106 31 -110 84 -111 311
-1 395 63 48 158 50 224 3z"/>
<path d="M10486 3243 c27 -102 66 -245 95 -348 12 -44 25 -93 28 -110 5 -22
13 -31 32 -33 22 -3 27 3 38 40 8 24 17 54 22 68 4 14 22 75 39 135 38 136 59
195 70 195 8 0 25 -41 40 -95 5 -16 20 -70 35 -120 14 -49 35 -120 46 -157 17
-59 23 -68 44 -68 20 0 26 8 38 53 54 196 77 282 97 357 12 47 26 95 31 108 8
20 6 22 -19 22 -27 0 -27 -1 -70 -183 -59 -247 -80 -303 -96 -249 -12 42 -66
236 -92 330 -26 98 -29 102 -55 102 -25 0 -29 -5 -42 -52 -40 -148 -100 -365
-104 -380 -2 -10 -8 -18 -13 -18 -13 0 -21 26 -75 240 -50 196 -53 205 -77
208 l-25 3 13 -48z"/>
<path d="M11390 3020 l0 -270 160 0 c153 0 160 1 160 20 0 19 -7 20 -128 20
-86 0 -132 4 -140 12 -16 16 -16 180 0 196 8 8 53 12 136 12 112 0 123 2 120
18 -3 15 -18 17 -128 20 -84 2 -127 7 -132 15 -9 14 -11 148 -2 171 5 14 27
16 140 16 127 0 134 1 134 20 0 19 -7 20 -160 20 l-160 0 0 -270z"/>
<path d="M11990 3019 l0 -271 133 4 c149 4 195 19 228 72 42 70 9 176 -61 191
-16 4 -30 11 -30 16 0 5 18 27 40 48 35 33 40 43 40 83 0 31 -7 54 -21 72 -38
48 -67 56 -204 56 l-125 0 0 -271z m269 205 c26 -21 31 -33 31 -67 -1 -49 -13
-68 -57 -90 -38 -20 -172 -24 -191 -5 -12 12 -17 143 -6 172 5 13 24 16 99 16
86 0 96 -2 124 -26z m1 -229 c40 -20 60 -53 60 -95 0 -45 -23 -78 -66 -96 -42
-18 -195 -19 -212 -2 -16 16 -16 180 0 196 18 18 182 16 218 -3z"/>
<path d="M12990 3020 l0 -270 108 0 c169 0 248 35 293 128 20 39 23 63 24 147
0 92 -2 104 -28 147 -55 94 -112 118 -278 118 l-119 0 0 -270z m291 195 c58
-41 83 -93 87 -182 4 -60 0 -80 -21 -126 -35 -78 -88 -107 -202 -115 -60 -3
-89 -1 -100 8 -12 10 -15 46 -15 215 0 112 3 211 6 220 6 15 20 17 105 13 90
-3 102 -6 140 -33z"/>
<path d="M13690 3020 l0 -270 160 0 c153 0 160 1 160 20 0 19 -7 20 -128 20
-86 0 -132 4 -140 12 -16 16 -16 180 0 196 8 8 53 12 136 12 112 0 123 2 120
18 -3 15 -18 17 -128 20 -84 2 -127 7 -132 15 -9 14 -11 148 -2 171 5 14 27
16 140 16 127 0 134 1 134 20 0 19 -7 20 -160 20 l-160 0 0 -270z"/>
<path d="M14270 3019 l0 -271 133 4 c149 5 196 19 228 72 42 70 9 176 -61 191
-16 4 -30 11 -30 16 0 5 18 27 40 48 35 33 40 43 40 83 0 31 -7 54 -21 72 -38
48 -67 56 -204 56 l-125 0 0 -271z m269 205 c26 -21 31 -33 31 -67 -1 -49 -13
-68 -57 -90 -38 -20 -172 -24 -191 -5 -13 13 -17 169 -5 181 3 4 48 7 99 7 85
0 95 -2 123 -26z m1 -229 c40 -20 60 -53 60 -95 0 -45 -23 -78 -66 -96 -42
-18 -195 -19 -212 -2 -16 16 -16 180 0 196 18 18 182 16 218 -3z"/>
<path d="M14932 3078 c3 -205 4 -214 27 -246 43 -60 90 -82 179 -82 69 0 83 3
123 29 76 48 83 73 87 309 l3 202 -25 0 -26 0 0 -192 c0 -217 -7 -244 -69
-285 -45 -30 -135 -32 -183 -3 -66 39 -73 62 -76 283 -3 189 -4 197 -23 197
-20 0 -20 -6 -17 -212z"/>
<path d="M17070 3020 c0 -263 0 -270 20 -270 20 0 20 7 20 270 0 263 0 270
-20 270 -20 0 -20 -7 -20 -270z"/>
<path d="M17410 3020 c0 -262 1 -270 20 -270 19 0 20 8 22 213 3 176 5 212 17
212 15 0 70 -73 230 -304 67 -98 88 -121 107 -121 l24 0 0 270 c0 263 0 270
-20 270 -19 0 -20 -7 -20 -202 0 -196 -6 -238 -28 -224 -6 4 -77 101 -157 216
-123 177 -150 210 -170 210 l-25 0 0 -270z"/>
<path d="M19190 3020 c0 -262 1 -270 20 -270 18 0 20 8 22 98 l3 97 95 6 c159
9 220 56 220 171 0 72 -27 119 -86 148 -33 17 -61 20 -157 20 l-117 0 0 -270z
m258 210 c32 -20 62 -71 62 -107 0 -9 -9 -36 -20 -59 -16 -32 -31 -46 -61 -58
-47 -19 -169 -22 -187 -4 -13 13 -18 229 -5 241 3 4 45 7 92 7 69 0 93 -4 119
-20z"/>
<path d="M19810 3020 c0 -262 1 -270 20 -270 18 0 20 8 22 108 l3 107 80 0 80
0 58 -107 c54 -99 61 -108 87 -108 l29 0 -47 83 c-76 133 -77 134 -63 151 7 8
20 18 29 21 35 11 62 68 62 130 0 47 -5 64 -26 93 -40 52 -76 62 -214 62
l-120 0 0 -270z m261 214 c31 -16 59 -66 59 -106 0 -36 -37 -88 -75 -104 -42
-17 -176 -19 -193 -2 -13 13 -18 209 -5 221 14 14 183 7 214 -9z"/>
<path d="M21130 3284 c0 -3 38 -62 85 -130 59 -87 82 -129 78 -142 -4 -9 -37
-60 -73 -112 -111 -159 -107 -150 -77 -150 22 0 38 18 99 108 40 59 80 107 88
107 8 0 48 -48 88 -107 60 -89 77 -108 98 -108 17 0 23 4 18 13 -4 6 -43 65
-87 131 -45 67 -77 125 -74 135 2 9 41 69 86 134 44 65 81 121 81 123 0 2 -10
4 -23 4 -18 0 -38 -23 -92 -105 -60 -90 -90 -124 -100 -113 -2 2 -35 51 -74
111 -59 89 -75 107 -96 107 -14 0 -25 -3 -25 -6z"/>
<path d="M21871 3163 c114 -181 109 -166 109 -298 l0 -115 25 0 25 0 0 120 0
119 86 137 c105 167 104 167 71 162 -22 -2 -39 -24 -95 -118 -47 -78 -75 -115
-87 -115 -12 0 -41 38 -89 118 -62 103 -74 117 -98 117 -27 0 -26 -2 53 -127z"/>
<path d="M6136 2835 c-3 -8 -1 -15 4 -15 6 0 10 7 10 15 0 8 -2 15 -4 15 -2 0
-6 -7 -10 -15z"/>
<path d="M6957 2678 c-14 -18 -39 -57 -57 -85 -26 -43 -37 -53 -59 -53 -34 0
-45 -12 -111 -125 -57 -98 -63 -107 -136 -190 -27 -32 -61 -79 -76 -107 -58
-109 -142 -185 -229 -208 -89 -23 -114 -33 -185 -76 -39 -24 -74 -44 -78 -44
-12 0 -5 16 19 42 32 35 31 38 -5 38 -25 0 -30 4 -30 25 0 26 25 95 66 180 25
55 32 131 12 137 -9 3 -8 28 5 101 13 68 16 119 11 175 -4 52 -2 91 6 116 6
20 9 44 5 54 -5 13 -12 7 -34 -28 -36 -59 -58 -124 -81 -237 -10 -51 -24 -101
-30 -113 -12 -22 -35 -27 -46 -9 -4 7 -21 9 -43 5 -60 -9 -81 12 -81 85 0 33
5 69 10 80 21 39 -9 18 -47 -33 -62 -85 -72 -104 -82 -160 -14 -82 -53 -181
-78 -201 -13 -10 -23 -25 -23 -33 0 -8 -3 -14 -7 -14 -5 0 -8 35 -7 77 1 53 5
77 13 76 7 -2 11 13 11 42 0 47 -9 56 -30 30 -7 -8 -22 -15 -34 -15 -23 0
-110 -43 -139 -68 -23 -20 -4 -33 34 -22 31 9 39 -1 39 -49 0 -25 -26 -61 -44
-61 -3 0 -11 11 -16 24 -12 32 -67 48 -136 40 -60 -7 -72 3 -50 43 19 36 142
156 181 177 43 22 12 20 -38 -3 -42 -20 -111 -85 -162 -153 -30 -41 -46 -46
-65 -23 -11 13 -9 23 8 54 12 21 22 47 22 57 0 15 -3 15 -25 -6 -13 -13 -27
-31 -31 -42 -3 -10 -11 -18 -18 -18 -15 0 -100 78 -115 105 -9 18 -10 17 -11
-11 0 -19 14 -50 38 -85 37 -53 85 -85 180 -120 23 -8 37 -23 47 -47 8 -19 15
-37 15 -40 0 -6 -94 7 -146 20 -35 10 -46 9 -68 -5 -35 -23 -50 -22 -36 2 5
11 10 27 10 36 0 13 -8 11 -37 -12 -48 -37 -72 -46 -88 -33 -18 15 -45 -2 -75
-49 -14 -20 -42 -53 -63 -74 -32 -32 -38 -35 -44 -20 -6 15 7 108 23 161 5 18
2 22 -14 22 -13 0 -22 -9 -26 -25 -4 -14 -12 -25 -19 -25 -23 1 -75 58 -87 96
-7 21 -19 45 -27 52 -12 12 -13 10 -7 -14 4 -16 10 -36 14 -44 12 -25 21 -86
14 -104 -8 -22 -24 -20 -24 3 0 28 -27 87 -52 113 -18 18 -34 23 -70 23 -52
-1 -68 -9 -50 -27 17 -17 15 -42 -9 -82 -17 -29 -25 -35 -44 -30 -16 4 -26 0
-33 -12 -9 -16 -14 -16 -37 -6 -14 7 -49 12 -76 12 -68 0 -86 12 -103 68 -26
81 -47 137 -56 146 -6 6 -18 -9 -30 -37 -11 -25 -24 -48 -29 -51 -9 -6 -51 16
-110 58 -23 16 -43 27 -46 24 -5 -5 47 -89 101 -163 39 -54 60 -93 53 -99 -11
-12 -166 -47 -184 -42 -33 8 -162 168 -217 269 -64 117 -84 139 -118 132 -26
-6 -29 -3 -70 71 -33 58 -65 104 -72 104 -13 0 -9 -38 6 -75 24 -56 224 -293
361 -428 68 -67 171 -147 188 -147 7 0 39 7 71 14 67 16 65 17 147 -85 l37
-45 138 -27 c160 -31 175 -32 246 -13 29 8 79 22 112 31 73 19 63 13 174 113
52 46 96 82 99 79 12 -12 -24 -52 -108 -122 -50 -41 -87 -75 -83 -75 4 0 -5
-13 -21 -30 -16 -16 -27 -32 -24 -34 17 -17 321 -30 712 -31 255 0 247 -2 247
72 0 23 5 45 10 48 8 5 9 -9 4 -42 -9 -73 -4 -75 157 -58 156 17 225 32 333
74 156 60 210 102 425 336 36 39 148 157 250 263 102 106 196 212 208 235 18
35 22 59 23 140 0 55 -4 97 -9 97 -6 0 -21 -15 -34 -32z m-2459 -704 l-4 -29
-11 25 c-12 28 -6 57 9 42 5 -5 8 -22 6 -38z m1259 -5 l48 -22 -42 -7 c-24 -3
-46 -9 -50 -13 -3 -4 5 -49 20 -100 27 -93 34 -147 19 -147 -5 0 -14 21 -21
48 -13 50 -82 155 -88 135 -3 -9 -18 -11 -47 -7 -36 5 -133 -8 -173 -23 -9 -3
-13 4 -13 20 0 28 26 50 95 82 22 10 56 29 75 42 29 20 43 23 82 19 27 -3 69
-15 95 -27z m-1317 -51 c0 -7 -5 -20 -10 -28 -8 -12 -10 -9 -10 13 0 15 5 27
10 27 6 0 10 -6 10 -12z m1341 -34 c20 -25 65 -44 102 -44 43 0 58 -27 28 -50
-11 -8 -23 -27 -26 -42 -4 -16 -10 -28 -14 -28 -12 0 -91 71 -91 81 0 6 -9 29
-20 51 -11 23 -20 43 -20 45 0 10 30 1 41 -13z m-250 -64 c27 -15 24 -34 -13
-90 -28 -43 -34 -47 -52 -38 -16 9 -23 7 -37 -11 -22 -26 -29 -27 -29 -1 0 30
46 116 72 134 26 19 33 19 59 6z m-371 -50 c8 -5 12 -11 10 -13 -11 -9 -192
-39 -198 -32 -4 4 6 18 21 31 23 20 39 24 90 24 34 0 69 -4 77 -10z m520 -36
c0 -13 -4 -24 -10 -24 -5 0 -10 14 -10 31 0 17 4 28 10 24 6 -3 10 -17 10 -31z"/>
<path d="M4390 2461 c-18 -12 -20 -11 73 -60 81 -43 120 -50 151 -26 24 18 15
30 -47 61 -55 28 -152 42 -177 25z"/>
<path d="M4310 2402 c0 -4 14 -18 31 -32 29 -25 30 -29 24 -74 -11 -69 -34
-89 -93 -81 -81 11 -106 33 -114 105 -3 23 -7 25 -43 22 -43 -4 -71 -23 -81
-55 -8 -26 11 -37 70 -37 37 0 55 -6 78 -25 16 -14 36 -25 43 -25 7 0 22 -12
33 -27 l19 -27 54 23 c29 13 75 30 101 38 42 12 48 17 48 41 0 39 -33 87 -80
117 -48 30 -90 48 -90 37z"/>
<path d="M5600 2400 c0 -19 23 -59 37 -64 36 -14 44 23 13 54 -21 21 -50 27
-50 10z"/>
<path d="M4746 2335 c-7 -59 -23 -95 -43 -95 -6 0 -23 -14 -37 -32 l-25 -32
-5 25 c-3 13 -7 33 -8 43 -3 18 -5 18 -32 -6 -29 -25 -30 -26 -13 -52 10 -14
23 -26 30 -26 16 0 51 -37 60 -62 8 -22 35 -23 63 -3 18 12 22 30 29 107 12
124 11 166 -2 179 -7 7 -12 -7 -17 -46z"/>
<path d="M5575 2320 c3 -5 10 -10 16 -10 5 0 9 5 9 10 0 6 -7 10 -16 10 -8 0
-12 -4 -9 -10z"/>
<path d="M5430 2265 c0 -34 12 -46 25 -24 9 14 -3 59 -15 59 -6 0 -10 -16 -10
-35z"/>
<path d="M6415 2233 c-16 -8 -43 -28 -60 -43 -16 -15 -44 -33 -62 -39 -33 -13
-123 -102 -123 -121 0 -17 20 -11 58 19 28 22 56 32 112 41 111 18 120 23 119
67 -1 21 -4 50 -8 65 -6 26 -7 26 -36 11z"/>
<path d="M4836 2165 c-11 -8 -18 -17 -15 -19 2 -3 15 4 29 14 14 11 21 20 15
19 -5 0 -19 -6 -29 -14z"/>
<path d="M4570 2126 c22 -22 72 -46 82 -40 13 8 -52 54 -76 54 -18 0 -18 -2
-6 -14z"/>
<path d="M4216 2105 c8 -37 14 -45 14 -19 0 10 -5 26 -10 34 -8 11 -9 7 -4
-15z"/>
<path d="M4120 2093 c0 -12 70 -83 81 -83 18 0 -25 61 -53 76 -16 8 -28 11
-28 7z"/>
<path d="M6095 1890 c-10 -11 -14 -20 -8 -20 5 0 18 9 28 20 10 11 14 20 8 20
-5 0 -18 -9 -28 -20z"/>
<path d="M5508 1383 c7 -3 16 -2 19 1 4 3 -2 6 -13 5 -11 0 -14 -3 -6 -6z"/>
<path d="M6256 1375 c-11 -8 -16 -15 -10 -15 5 0 18 7 28 15 11 8 16 15 10 15
-5 0 -18 -7 -28 -15z"/>
<path d="M6110 1300 c0 -5 7 -7 15 -4 8 4 15 8 15 10 0 2 -7 4 -15 4 -8 0 -15
-4 -15 -10z"/>
<path d="M6078 1283 c7 -3 16 -2 19 1 4 3 -2 6 -13 5 -11 0 -14 -3 -6 -6z"/>
<path d="M6018 1263 c7 -3 16 -2 19 1 4 3 -2 6 -13 5 -11 0 -14 -3 -6 -6z"/>
<path d="M5945 1240 c-7 -12 12 -12 40 0 18 8 17 9 -7 9 -15 1 -30 -3 -33 -9z"/>
<path d="M5908 1223 c7 -3 16 -2 19 1 4 3 -2 6 -13 5 -11 0 -14 -3 -6 -6z"/>
<path d="M5838 1203 c6 -2 18 -2 25 0 6 3 1 5 -13 5 -14 0 -19 -2 -12 -5z"/>
<path d="M4288 1183 c6 -2 18 -2 25 0 6 3 1 5 -13 5 -14 0 -19 -2 -12 -5z"/>
<path d="M5736 1182 c-2 -4 11 -6 30 -4 19 2 34 6 34 8 0 8 -59 4 -64 -4z"/>
<path d="M4358 1163 c6 -2 18 -2 25 0 6 3 1 5 -13 5 -14 0 -19 -2 -12 -5z"/>
<path d="M5650 1160 c0 -11 14 -11 50 0 22 7 21 8 -12 9 -21 1 -38 -3 -38 -9z"/>
<path d="M4458 1143 c7 -3 16 -2 19 1 4 3 -2 6 -13 5 -11 0 -14 -3 -6 -6z"/>
<path d="M5573 1143 c9 -2 25 -2 35 0 9 3 1 5 -18 5 -19 0 -27 -2 -17 -5z"/>
<path d="M4593 1123 c9 -2 23 -2 30 0 6 3 -1 5 -18 5 -16 0 -22 -2 -12 -5z"/>
<path d="M5325 1120 c-27 -5 -174 -9 -325 -11 -181 -1 -253 -5 -210 -9 160
-18 435 -10 645 19 l60 8 -60 0 c-33 0 -82 -3 -110 -7z"/>
</g>
</svg>
