<svg xmlns="http://www.w3.org/2000/svg"  viewBox="0 0 64 64" width="64px" height="64px"><linearGradient id="HPV1zx2eH4t8ClYdmEdsqa" x1="32" x2="32" y1="-231.575" y2="-284.751" gradientTransform="matrix(1 0 0 -1 0 -225.816)" gradientUnits="userSpaceOnUse"><stop offset="0" stop-color="#1a6dff"/><stop offset="1" stop-color="#c822ff"/></linearGradient><path fill="url(#HPV1zx2eH4t8ClYdmEdsqa)" d="M28,14.092h8v2h-8V14.092z"/><linearGradient id="HPV1zx2eH4t8ClYdmEdsqb" x1="32" x2="32" y1="6.092" y2="58.092" gradientUnits="userSpaceOnUse"><stop offset="0" stop-color="#1a6dff"/><stop offset="1" stop-color="#c822ff"/></linearGradient><path fill="url(#HPV1zx2eH4t8ClYdmEdsqb)" d="M52.12,21.798l-2.705-2.707l1.582-1.582c0.574-0.574,0.745-1.431,0.434-2.181	c-0.311-0.751-1.037-1.236-1.85-1.236H40v-1v-4c0-1.654-1.346-3-3-3H27c-1.654,0-3,1.346-3,3v4v1h-9.581	c-0.813,0-1.539,0.485-1.85,1.236c-0.312,0.75-0.141,1.606,0.434,2.181l1.582,1.584l-2.705,2.705C11.313,22.365,11,23.119,11,23.921	v29.171c0,2.757,2.243,5,5,5h32c2.757,0,5-2.243,5-5V23.921C53,23.119,52.688,22.365,52.12,21.798z M40,16.092l9.583,0.003	l-1.582,1.582c-0.126,0.126-0.224,0.268-0.31,0.415H44v2h3.691c0.085,0.147,0.184,0.289,0.31,0.415l1.585,1.585H40V16.092z M26,9.092c0-0.552,0.448-1,1-1h10c0.552,0,1,0.448,1,1v1.184c-0.314-0.112-0.647-0.184-1-0.184H27c-0.352,0-0.686,0.072-1,0.184	V9.092z M26,16.092v-2v-1c0-0.552,0.448-1,1-1h10c0.552,0,1,0.448,1,1v1v2v6H26V16.092z M15.999,20.507	c0.126-0.126,0.224-0.268,0.309-0.415H20v-2h-3.692c-0.085-0.147-0.183-0.289-0.309-0.415l-1.58-1.585H24v6h-9.586L15.999,20.507z M19.64,56.092c-0.42-1.26-0.64-2.61-0.64-4c0-2.38,0.65-4.6,1.77-6.52l2.24,6.71c0.03,1.37,0.36,2.66,0.94,3.81H19.64z M22.21,43.562c2.39-2.73,5.89-4.47,9.79-4.47c3.68,0,6.99,1.54,9.36,4H32c-3.64,0-6.77,2.17-8.19,5.28L22.21,43.562z M26.26,56.092	c-0.8-1.13-1.26-2.51-1.26-4c0-3.86,3.14-7,7-7s7,3.14,7,7c0,1.49-0.46,2.87-1.26,4H26.26z M40.06,56.092c0.6-1.21,0.94-2.57,0.94-4	c0-2.83-1.31-5.35-3.36-7h5.3c1.3,2.02,2.06,4.42,2.06,7c0,1.39-0.22,2.74-0.64,4H40.06z M51,53.092c0,1.654-1.346,3-3,3h-1.54	c0.35-1.28,0.54-2.62,0.54-4c0-3.36-1.13-6.46-3-8.96v-0.04h-0.03c-2.74-3.64-7.08-6-11.97-6c-8.27,0-15,6.73-15,15	c0,1.38,0.19,2.72,0.54,4H16c-1.654,0-3-1.346-3-3v-29h38V53.092z"/><linearGradient id="HPV1zx2eH4t8ClYdmEdsqc" x1="32" x2="32" y1="56.259" y2="46.209" gradientUnits="userSpaceOnUse"><stop offset="0" stop-color="#6dc7ff"/><stop offset="1" stop-color="#e6abff"/></linearGradient><path fill="url(#HPV1zx2eH4t8ClYdmEdsqc)" d="M37,52.092c0,1.63-0.79,3.09-2,4h-6c-1.21-0.91-2-2.37-2-4c0-2.76,2.24-5,5-5	S37,49.332,37,52.092z"/></svg>