<?xml version="1.0" encoding="utf-8"?>
<!-- Generator: Adobe Illustrator 23.1.0, SVG Export Plug-In . SVG Version: 6.00 Build 0)  -->
<svg version="1.1" id="Слой_1" xmlns="http://www.w3.org/2000/svg" xmlns:xlink="http://www.w3.org/1999/xlink" x="0px" y="0px"
	 viewBox="0 0 300 90" style="enable-background:new 0 0 300 90;" xml:space="preserve">
<style type="text/css">
	.st0{fill:#495561;}
	.st1{fill:#3875C5;}
	.st2{fill:#A6A8AB;}
</style>
<path class="st0" d="M132.5,73.6c-1.5,0-2.6,0.5-3.5,1.4c-0.9,0.9-1.4,2.1-1.4,3.5s0.5,2.6,1.4,3.5c0.9,0.9,2.2,1.4,3.7,1.4
	c1.8,0,3.1-0.7,4.1-2l-1.9-1.1c-0.5,0.6-1.2,0.9-2.1,0.9c-1.4,0-2.3-0.6-2.6-1.7h7c0.1-0.4,0.1-0.7,0.1-1c0-1.4-0.5-2.5-1.3-3.5
	C135,74,133.9,73.6,132.5,73.6z M130.1,77.4c0.1-0.6,0.4-1.1,0.8-1.4c0.4-0.3,1-0.5,1.6-0.5c0.6,0,1.1,0.2,1.5,0.5
	c0.4,0.3,0.7,0.8,0.8,1.4H130.1z"/>
<path class="st0" d="M154.3,73.6c-1.5,0-2.6,0.5-3.5,1.4c-0.9,0.9-1.4,2.1-1.4,3.5s0.5,2.6,1.4,3.5c0.9,0.9,2.2,1.4,3.7,1.4
	c1.8,0,3.1-0.7,4.1-2l-1.9-1.1c-0.5,0.6-1.2,0.9-2.1,0.9c-1.4,0-2.3-0.6-2.6-1.7h7c0.1-0.4,0.1-0.7,0.1-1c0-1.4-0.5-2.5-1.3-3.5
	C156.7,74,155.6,73.6,154.3,73.6z M151.8,77.4c0.1-0.6,0.4-1.1,0.8-1.4c0.4-0.3,1-0.5,1.6-0.5c0.6,0,1.1,0.2,1.5,0.5
	c0.4,0.3,0.7,0.8,0.8,1.4H151.8z"/>
<path class="st0" d="M187.7,73.6v3.7h-3.9v-3.7h-2.5v9.8h2.5v-3.7h3.9v3.7h2.5v-9.8H187.7z"/>
<path class="st0" d="M165.8,73.6H163l-3.6,9.8h2.7l2.3-7l2.4,7h2.7L165.8,73.6L165.8,73.6z"/>
<path class="st0" d="M219.9,74.9c-0.7-0.9-1.7-1.4-3-1.4c-1.3,0-2.3,0.5-3.2,1.4c-0.9,0.9-1.3,2.1-1.3,3.5c0,1.4,0.5,2.5,1.3,3.5
	c0.9,0.9,2,1.4,3.2,1.4c1.3,0,2.3-0.5,3-1.4v1.4h2.4v-9.8h-2.4V74.9z M219.2,80.4c-0.5,0.5-1.1,0.7-1.9,0.7c-0.7,0-1.4-0.2-1.9-0.7
	c-0.5-0.5-0.7-1.2-0.7-1.9c0-0.8,0.2-1.4,0.7-1.9c0.5-0.5,1.1-0.7,1.9-0.7c0.7,0,1.4,0.2,1.9,0.7s0.7,1.1,0.7,1.9
	C219.9,79.3,219.7,79.9,219.2,80.4z"/>
<path class="st0" d="M222.4,69.5h-5.9v2.1h5.9V69.5z"/>
<path class="st0" d="M121.6,70h-3.2l-3.6,10.8h-1.5v2.7h13.4v-2.7h-1.5L121.6,70z M117.6,80.7l2.4-7.6l2.4,7.6H117.6z"/>
<path class="st0" d="M199.3,73.6l-4.6,5.6v-5.6h-2.5v9.8h1.9l4.6-5.6v5.6h2.5v-9.8H199.3z"/>
<path class="st0" d="M146.3,78.4c0.6-0.5,0.9-1.2,0.9-2s-0.3-1.5-0.9-2c-0.6-0.5-1.4-0.8-2.4-0.8h-4.8v9.8h5.2c1,0,1.9-0.2,2.4-0.8
	c0.6-0.5,0.9-1.2,0.9-2C147.6,79.6,147.2,78.8,146.3,78.4z M141.6,75.7h2.2c0.7,0,1.1,0.3,1.1,0.9c0,0.6-0.3,0.9-1.1,0.9h-2.2V75.7z
	 M144,81.3h-2.5v-1.9h2.5c0.3,0,0.6,0.1,0.8,0.2c0.2,0.2,0.3,0.4,0.3,0.7C145.2,81,144.8,81.3,144,81.3z"/>
<path class="st0" d="M208.2,78.4L208.2,78.4l3.9-4.9h-3l-3.4,4.3v-4.3h-2.5v9.8h2.5v-4.5l3.6,4.5h3L208.2,78.4L208.2,78.4z"/>
<path class="st0" d="M174.8,73.6c-1.4,0-2.5,0.5-3.5,1.4c-0.9,0.9-1.4,2.1-1.4,3.5s0.5,2.5,1.4,3.5c0.9,0.9,2.1,1.4,3.5,1.4
	c1.4,0,2.5-0.5,3.5-1.4c0.9-0.9,1.4-2.1,1.4-3.5c0-1.4-0.5-2.5-1.4-3.5C177.3,74,176.1,73.6,174.8,73.6z M176.6,80.3
	c-0.5,0.5-1.1,0.7-1.8,0.7s-1.3-0.2-1.8-0.7c-0.5-0.5-0.7-1.1-0.7-1.9s0.2-1.3,0.7-1.9c0.5-0.5,1.1-0.7,1.8-0.7
	c0.7,0,1.3,0.2,1.8,0.7c0.5,0.5,0.7,1.1,0.7,1.9C177.3,79.2,177,79.8,176.6,80.3z"/>
<path class="st0" d="M104.8,83.4c-0.8,0-1.6-0.1-2.2-0.2c-0.7-0.2-1.3-0.4-1.7-0.7c-0.5-0.3-0.9-0.7-1.1-1.2c-0.3-0.5-0.4-1-0.4-1.6
	c0-0.5,0.1-1,0.2-1.4c0.2-0.4,0.4-0.7,0.7-0.9c0.3-0.2,0.6-0.5,0.9-0.7c-0.5-0.2-0.9-0.6-1.2-1.1c-0.3-0.5-0.5-1-0.5-1.8
	c0-0.7,0.1-1.3,0.4-1.7c0.3-0.5,0.7-0.9,1.2-1.2c0.5-0.3,1-0.5,1.6-0.7c0.6-0.1,1.1-0.2,1.7-0.2c0.6,0,1,0,1.5,0.1
	c0.5,0.1,0.9,0.2,1.3,0.3c0.4,0.2,0.8,0.4,1.2,0.7l-0.8,2c-0.4-0.3-0.9-0.5-1.4-0.7c-0.5-0.1-1-0.2-1.6-0.2c-0.8,0-1.4,0.1-1.8,0.5
	c-0.4,0.3-0.6,0.7-0.6,1.3c0,0.5,0.2,0.9,0.5,1.2c0.3,0.3,0.8,0.5,1.4,0.5h1v2.1h-1c-0.7,0-1.2,0.1-1.6,0.4
	c-0.3,0.3-0.5,0.7-0.5,1.2c0,0.6,0.2,1,0.8,1.3c0.5,0.3,1.3,0.4,2.2,0.4c0.5,0,1,0,1.5-0.1c0.5-0.1,0.9-0.2,1.2-0.4v-2.8h-1.3v-2.1
	h4.8v2.1h-1.2v4.2c-0.6,0.4-1.3,0.8-2.1,1C106.9,83.2,105.9,83.4,104.8,83.4z"/>
<path class="st1" d="M89.4,27.7c0-1-0.3-1.9-1.1-2.6c-0.7-0.7-1.6-1.1-2.7-1.1H60.9c-1,0-1.9,0.3-2.7,1.1c-0.8,0.8-1.1,1.6-1.1,2.6
	c0,1,0.3,1.9,1.1,2.5c0.7,0.7,1.6,1.1,2.7,1.1h8.2v27.9c0,1.2,0.4,2.1,1.3,3c0.9,0.9,1.8,1.3,3,1.3c1.1,0,2.1-0.4,3-1.3
	c0.8-0.8,1.3-1.8,1.3-3V31.4h8.2c1,0,1.9-0.3,2.7-1.1C89.1,29.6,89.4,28.7,89.4,27.7z M100.9,34.2c-4.3,0-7.8,1.4-10.5,4.3
	c-2.8,2.9-4.2,6.3-4.2,10.5c0,4.4,1.4,7.9,4.3,10.7c2.9,2.7,6.5,4.2,10.9,4.2c3.5,0,6.6-0.8,9.4-2.4c1-0.6,1.6-1.4,1.6-2.5
	c0-0.8-0.2-1.4-0.8-2c-0.6-0.6-1.3-0.8-2-0.8c-0.5,0-1,0.1-1.4,0.3c-1.9,1-3.8,1.6-5.8,1.6c-2.3,0-4.2-0.6-5.6-1.9
	c-1.4-1.3-2.3-2.8-2.5-4.7h16.7c3,0,4.4-1.2,4.4-3.5c0-3.8-1.4-7-4.1-9.6C108.4,35.4,104.9,34.2,100.9,34.2z M93.9,46.2
	c0.2-1.8,0.9-3.2,2.2-4.5c1.2-1.2,2.8-1.8,4.9-1.8c2.1,0,3.7,0.6,5,1.8c1.3,1.2,1.9,2.7,2,4.5H93.9z M137.3,46.9
	c-1.8-0.6-3.7-1.1-5.7-1.4c-2-0.4-3.4-0.8-4.3-1.3c-0.8-0.4-1.2-1-1.2-1.8c0-0.8,0.4-1.4,1.2-2c0.8-0.5,1.9-0.7,3.2-0.7
	c2.4,0,4.5,0.6,6.5,1.8c0.3,0.2,0.8,0.3,1.4,0.3c0.8,0,1.4-0.2,2-0.8s0.8-1.3,0.8-2c0-1.2-0.5-2-1.4-2.4c-2.7-1.7-5.9-2.5-9.4-2.5
	c-3.5,0-6.4,0.8-8.5,2.5c-2.1,1.7-3.1,3.8-3.1,6.3c0,3.7,1.9,6.2,5.5,7.4c1.4,0.5,3.3,1,5.6,1.4c2,0.4,3.5,0.8,4.3,1.3
	c0.8,0.5,1.3,1.2,1.3,2c0,2-1.6,2.9-4.8,2.9c-2.5,0-5.1-0.8-7.8-2.4c-0.5-0.2-1-0.4-1.6-0.4c-0.8,0-1.6,0.3-2.2,0.9
	c-0.6,0.6-0.9,1.4-0.9,2.2c0,1.2,0.5,2.1,1.6,2.7c3,1.9,6.6,2.7,10.5,2.7c3.8,0,6.8-0.8,9-2.5c2.2-1.7,3.3-3.9,3.3-6.5
	C143,50.9,141.1,48.3,137.3,46.9z M161.3,57c-0.1,0-0.2,0-0.5,0.1c-0.3,0.1-0.5,0.1-0.7,0.1c-0.8,0-1.4-0.2-1.9-0.8
	c-0.4-0.6-0.7-1.3-0.7-2.3V41.2h3c0.9,0,1.7-0.3,2.3-1c0.6-0.7,0.9-1.4,0.9-2.3c0-0.9-0.3-1.7-0.9-2.3c-0.6-0.7-1.4-1-2.3-1h-3v-4.4
	c0-1-0.3-1.9-1.1-2.6c-0.7-0.8-1.6-1.1-2.7-1.1c-1,0-2,0.4-2.7,1.1c-0.8,0.8-1.1,1.6-1.1,2.6v4.4h-1.7c-0.9,0-1.7,0.3-2.3,1
	c-0.6,0.7-1,1.4-1,2.3c0,0.9,0.3,1.7,1,2.3c0.7,0.6,1.4,0.9,2.3,0.9h1.8v14.7c0,2.5,0.7,4.4,2,5.8c1.4,1.4,3.4,2,6,2
	c1.5,0,2.8-0.2,3.9-0.6c1.4-0.5,2.2-1.4,2.2-3c0-0.9-0.2-1.6-0.8-2.3C162.9,57.4,162.2,57.1,161.3,57z M182.2,23.7
	c-1.2,0-2.2,0.4-3,1.3c-0.8,0.8-1.3,1.8-1.3,3v31.4c0,1.2,0.4,2.1,1.3,3c0.9,0.9,1.8,1.3,3,1.3c1.2,0,2.1-0.4,2.9-1.3
	c0.8-0.8,1.2-1.8,1.2-3V27.8c0-1.2-0.4-2.1-1.2-3C184.3,24.1,183.4,23.7,182.2,23.7z M221.2,25.1c-0.7-0.7-1.6-1.1-2.7-1.1h-24.8
	c-1,0-1.9,0.3-2.7,1.1c-0.8,0.7-1.1,1.6-1.1,2.6c0,1,0.3,1.9,1.1,2.5c0.7,0.7,1.6,1.1,2.7,1.1h8.2v27.9c0,1.2,0.4,2.1,1.3,3
	c0.8,0.8,1.8,1.3,3,1.3c1.2,0,2.1-0.4,3-1.3c0.8-0.8,1.3-1.8,1.3-3V31.4h8.2c1,0,1.9-0.3,2.7-1.1c0.7-0.7,1.1-1.6,1.1-2.5
	C222.2,26.7,221.9,25.9,221.2,25.1z"/>
<path class="st1" d="M44.3,55c-0.6-0.2-1.4-0.3-2.1-0.2l-4.3,0.8c-0.8,0.2-1.6,0.2-2.3,0c-1.4-0.2-2.4-0.9-3.1-2
	c-0.8-1.3-1.4-3.6-1.4-5.8V32.1h7.6c1.9,0,3.6-1.2,4.1-2.9c0.3-1.2,0.2-2.4-0.7-3.6c-0.8-1-1.9-1.6-3.1-1.6H14.5c-2,0-3.9,2-3.9,4.1
	c0,1,0.4,2,1.2,2.8c0.8,0.8,1.7,1.1,2.7,1.1H21v16.4c0,2.3,0.2,4.5,0.8,6.4c0.5,2,1.3,3.6,2.4,4.8c1.1,1.4,2.5,2.4,4.3,3.1
	c1.8,0.8,4.1,1.1,6.6,1.1c2.7,0,4.9-0.3,7-1.1c0.8-0.2,1.5-0.6,2.4-1c1.2-0.7,2-2,2-3.3C46.6,57,45.6,55.6,44.3,55z"/>
<path class="st1" d="M26.1,6.6c-3.7,0-6.6,3.2-6.2,6.9c0.3,2.9,2.7,5.2,5.5,5.5c3.8,0.4,7-2.5,7-6.2C32.4,9.4,29.5,6.6,26.1,6.6z"/>
<path class="st1" d="M230.2,24.2v27.9h28.2V24.2H230.2z M244.4,46.6c-2.5,0-5-0.9-6.4-2l0.9-1.9c1.3,1.2,3.3,1.9,5.5,1.9
	c2.9,0,4.1-1.2,4.1-2.5c0-4.1-10.1-1.5-10.1-7.6c0-2.5,2-4.7,6.4-4.7c1.9,0,3.9,0.5,5.3,1.4l-0.8,1.9c-1.4-0.9-3.1-1.4-4.6-1.4
	c-2.8,0-4.1,1.2-4.1,2.7c0,4.1,10.1,1.5,10.1,7.6C250.8,44.6,248.7,46.6,244.4,46.6z"/>
<path class="st2" d="M230.2,55.5v27.9h28.2V55.5H230.2z M250.3,63.3H241V69h8.3v2H241v6.6h-2.4V61.2h11.7L250.3,63.3L250.3,63.3z
	 M261.7,55.5v27.9H290V55.5H261.7z M281.5,77.7h-11.4V61.3h2.4v14.4h8.9L281.5,77.7L281.5,77.7z M282,38.3c0,3.7-2.7,6.3-6.1,6.3
	c-3.6,0-6.3-2.7-6.3-6.3c0-3.7,2.7-6.3,6.3-6.3C279.4,32,282,34.6,282,38.3z M290,24.2v27.9h-28.2V24.2H290z M284.3,38.3
	c0-4.8-3.6-8.5-8.4-8.5c-4.9,0-8.4,3.5-8.4,8.5c0,4.8,3.6,8.5,8.4,8.5C280.7,46.6,284.3,43.1,284.3,38.3z"/>
</svg>
