<svg xmlns="http://www.w3.org/2000/svg" xmlns:xlink="http://www.w3.org/1999/xlink" width="181.89000000000001" height="35.16"><path fill="#000000" d="M14.34 17.07L18.78 6.99L15.09 6.99L10.65 17.07ZM11.97 27.84L11.97 24.30C11.97 21.63 11.64 20.85 10.62 18.63L5.28 6.99L1.50 6.99L8.34 21.87L8.34 27.84ZM52.26 28.14C53.94 28.14 55.32 27.36 56.28 25.89L56.46 27.84L59.76 27.84L59.76 6.99L56.19 6.99L56.19 14.52C55.29 13.17 53.97 12.45 52.41 12.45C48.96 12.45 46.56 15.36 46.56 20.40C46.56 25.38 48.90 28.14 52.26 28.14ZM74.19 26.82L74.19 23.91C73.08 24.66 71.22 25.32 69.48 25.32C66.87 25.32 65.88 24.09 65.73 21.57L74.34 21.57L74.34 19.68C74.34 14.43 72.03 12.45 68.46 12.45C64.11 12.45 62.04 15.78 62.04 20.34C62.04 25.59 64.62 28.14 69.18 28.14C71.46 28.14 73.14 27.54 74.19 26.82ZM35.76 17.01C36.42 16.20 37.47 15.51 38.76 15.51C40.02 15.51 40.59 16.05 40.59 17.19L40.59 27.84L44.16 27.84L44.16 16.83C44.16 13.83 42.96 12.51 40.05 12.51C37.92 12.51 36.66 13.29 35.94 14.01L35.76 14.01L35.67 12.75L32.19 12.75L32.19 27.84L35.76 27.84ZM29.28 17.55C29.28 13.89 27.42 12.51 23.64 12.51C21.27 12.51 19.41 13.26 18.33 13.89L18.33 16.86C19.29 16.14 21.39 15.36 23.22 15.36C24.93 15.36 25.71 15.96 25.71 17.58L25.71 18.42L25.14 18.42C19.68 18.42 17.25 20.22 17.25 23.28C17.25 26.34 19.11 28.05 21.87 28.05C23.97 28.05 24.87 27.36 25.56 26.64L25.71 26.64C25.74 27.03 25.86 27.54 25.98 27.84L29.46 27.84C29.34 26.61 29.28 25.38 29.28 24.15ZM85.17 27.84L89.19 27.84L84.27 20.07L88.53 12.75L84.96 12.75L82.38 17.31L79.50 12.75L75.48 12.75L80.04 19.98L75.30 27.84L78.93 27.84L81.96 22.74ZM53.31 15.27C55.23 15.27 56.19 16.80 56.19 20.28C56.19 23.79 55.17 25.32 53.16 25.32C51.21 25.32 50.25 23.82 50.25 20.40C50.25 16.83 51.27 15.27 53.31 15.27ZM68.40 15.27C70.17 15.27 70.71 16.74 70.71 18.63L70.71 18.93L65.73 18.93C65.82 16.53 66.69 15.27 68.40 15.27ZM25.71 24.24C25.26 24.90 24.42 25.44 23.16 25.44C21.66 25.44 20.91 24.60 20.91 23.31C20.91 21.60 22.14 20.97 25.20 20.97L25.71 20.97ZM96.69 9.81L101.64 9.81L101.64 27.84L105.27 27.84L105.27 9.81L110.22 9.81L110.22 6.99L96.69 6.99ZM112.89 18.42C113.88 16.59 115.35 15.66 117.54 15.78L117.54 12.42C115.50 12.54 113.82 13.77 112.98 15.75L112.89 15.75L112.80 12.75L109.32 12.75L109.32 27.84L112.89 27.84ZM130.32 17.55C130.32 13.89 128.46 12.51 124.68 12.51C122.31 12.51 120.45 13.26 119.37 13.89L119.37 16.86C120.33 16.14 122.43 15.36 124.26 15.36C125.97 15.36 126.75 15.96 126.75 17.58L126.75 18.42L126.18 18.42C120.72 18.42 118.29 20.22 118.29 23.28C118.29 26.34 120.15 28.05 122.91 28.05C125.01 28.05 125.91 27.36 126.60 26.64L126.75 26.64C126.78 27.03 126.90 27.54 127.02 27.84L130.50 27.84C130.38 26.61 130.32 25.38 130.32 24.15ZM126.75 24.24C126.30 24.90 125.46 25.44 124.20 25.44C122.70 25.44 121.95 24.60 121.95 23.31C121.95 21.60 123.18 20.97 126.24 20.97L126.75 20.97ZM139.68 28.14C141.33 28.14 142.50 27.84 143.37 27.21L143.37 24.30C142.47 24.93 141.39 25.32 139.89 25.32C137.34 25.32 136.29 23.34 136.29 20.22C136.29 16.95 137.58 15.27 139.92 15.27C141.30 15.27 142.65 15.75 143.37 16.20L143.37 13.17C142.62 12.75 141.30 12.45 139.53 12.45C134.97 12.45 132.60 15.72 132.60 20.31C132.60 25.35 134.91 28.14 139.68 28.14ZM154.62 27.84L158.67 27.84L152.82 19.74L157.98 12.75L154.38 12.75L149.34 19.71L149.34 6.99L145.77 6.99L145.77 27.84L149.34 27.84L149.34 20.43ZM170.67 26.82L170.67 23.91C169.56 24.66 167.70 25.32 165.96 25.32C163.35 25.32 162.36 24.09 162.21 21.57L170.82 21.57L170.82 19.68C170.82 14.43 168.51 12.45 164.94 12.45C160.59 12.45 158.52 15.78 158.52 20.34C158.52 25.59 161.10 28.14 165.66 28.14C167.94 28.14 169.62 27.54 170.67 26.82ZM164.88 15.27C166.65 15.27 167.19 16.74 167.19 18.63L167.19 18.93L162.21 18.93C162.30 16.53 163.17 15.27 164.88 15.27ZM176.79 18.42C177.78 16.59 179.25 15.66 181.44 15.78L181.44 12.42C179.40 12.54 177.72 13.77 176.88 15.75L176.79 15.75L176.70 12.75L173.22 12.75L173.22 27.84L176.79 27.84Z"/></svg>